<svg width="34" height="34" viewBox="0 0 34 34" fill="none" xmlns="http://www.w3.org/2000/svg">
<rect width="1.5" height="14" rx="0.75" transform="matrix(-1 0 0 1 13.5 10)" fill="#002230"/>
<rect width="1.5" height="14" rx="0.75" transform="matrix(-1 0 0 1 10 10)" fill="#002230"/>
<rect width="5" height="1.5" rx="0.75" transform="matrix(-1 0 0 1 13.5 10)" fill="#002230"/>
<rect width="5" height="1.5" rx="0.75" transform="matrix(-1 0 0 1 13.5 22.5)" fill="#002230"/>
<rect width="1.5" height="6" rx="0.75" transform="matrix(-0.707107 0.707107 0.707107 0.707107 16.2574 16)" fill="#002230"/>
<rect width="1.5" height="6" rx="0.75" transform="matrix(-0.707107 0.707107 0.707107 0.707107 20.2571 16)" fill="#002230"/>
<rect x="16.2574" y="18.0105" width="1.5" height="6" rx="0.75" transform="rotate(-135 16.2574 18.0105)" fill="#002230"/>
<rect x="20.2571" y="18.0105" width="1.5" height="6" rx="0.75" transform="rotate(-135 20.2571 18.0105)" fill="#002230"/>
</svg>
