<svg width="34" height="34" viewBox="0 0 34 34" fill="none" xmlns="http://www.w3.org/2000/svg">
<rect x="11" y="11" width="12" height="1" rx="0.5" fill="white" fill-opacity="0.8"/>
<path d="M12.0451 13.5415C12.0208 13.25 12.2509 13 12.5434 13H21.4566C21.7491 13 21.9792 13.25 21.9549 13.5415L21.0382 24.5415C21.0166 24.8007 20.8 25 20.5399 25H13.4601C13.2 25 12.9834 24.8007 12.9618 24.5415L12.0451 13.5415Z" fill="white" fill-opacity="0.8"/>
<rect x="15" y="9" width="4" height="1" rx="0.5" fill="white" fill-opacity="0.8"/>
<rect x="16" y="9" width="3" height="1" rx="0.5" transform="rotate(90 16 9)" fill="white" fill-opacity="0.8"/>
<rect x="19" y="9" width="3" height="1" rx="0.5" transform="rotate(90 19 9)" fill="white" fill-opacity="0.8"/>
</svg>
