<svg width="34" height="34" viewBox="0 0 34 34" fill="none" xmlns="http://www.w3.org/2000/svg">
<rect x="9" y="9" width="1.5" height="16" rx="0.75" fill="#002230"/>
<path d="M23.5 15.5L25 14V24.25C25 24.6642 24.6642 25 24.25 25C23.8358 25 23.5 24.6642 23.5 24.25V15.5Z" fill="#002230"/>
<path d="M9 9.75C9 9.33579 9.33579 9 9.75 9H20L18.5 10.5H9.75C9.33579 10.5 9 10.1642 9 9.75Z" fill="#002230"/>
<rect x="9" y="23.5" width="16" height="1.5" rx="0.75" fill="#002230"/>
<path d="M22.1161 9.38388C22.6043 8.89573 23.3957 8.89573 23.8839 9.38388L24.59 10.09C25.0782 10.5782 25.0782 11.3696 24.59 11.8578L23.3702 13.0776L20.8963 10.6037L22.1161 9.38388Z" fill="#002230"/>
<path d="M20.2751 11.2251L22.749 13.699L15.3496 21.0984C15.2144 21.2336 15.0433 21.3272 14.8566 21.3681L12.355 21.9166C12.1768 21.9556 12.0182 21.7969 12.0572 21.6188L12.606 19.1174C12.6469 18.9307 12.7405 18.7597 12.8756 18.6246L20.2751 11.2251Z" fill="#002230"/>
</svg>
