<svg width="34" height="34" viewBox="0 0 34 34" fill="none" xmlns="http://www.w3.org/2000/svg">
<path d="M11.75 13.5C11.75 13.3619 11.8619 13.25 12 13.25H23C23.1381 13.25 23.25 13.3619 23.25 13.5V21.5403C23.25 21.6066 23.2237 21.6702 23.1768 21.7171L20.2171 24.6768C20.1702 24.7237 20.1066 24.75 20.0403 24.75H12C11.8619 24.75 11.75 24.6381 11.75 24.5V13.5Z" stroke="white" stroke-opacity="0.8" stroke-width="1.5"/>
<path d="M20 22C20 21.7239 20.2239 21.5 20.5 21.5H22.5C22.7761 21.5 23 21.7239 23 22V22.393C23 22.5256 22.9473 22.6528 22.8535 22.7466L21.246 24.3536C21.1523 24.4473 21.0251 24.5 20.8925 24.5H20.5C20.2239 24.5 20 24.2761 20 24V22Z" fill="white" fill-opacity="0.8"/>
<path d="M8 10.25C8 9.83579 8.33579 9.5 8.75 9.5C9.16421 9.5 9.5 9.83579 9.5 10.25V22.5H9C8.44772 22.5 8 22.0523 8 21.5V10.25Z" fill="white" fill-opacity="0.8"/>
<path d="M8 10.25C8 9.83579 8.33579 9.5 8.75 9.5H18C18.5523 9.5 19 9.94772 19 10.5V11H8.75C8.33579 11 8 10.6642 8 10.25Z" fill="white" fill-opacity="0.8"/>
<rect x="25.6569" y="8.73223" width="4" height="10.5" rx="2" transform="rotate(45 25.6569 8.73223)" fill="white" fill-opacity="0.8" stroke="#002230" stroke-width="2.5"/>
<rect x="25.3566" y="10.5" width="1.5" height="5" rx="0.75" fill="white" fill-opacity="0.8"/>
<rect x="21.8566" y="10.5" width="5" height="1.5" rx="0.75" fill="white" fill-opacity="0.8"/>
</svg>
