<svg width="34" height="34" viewBox="0 0 34 34" fill="none" xmlns="http://www.w3.org/2000/svg">
<path d="M22 23.5C22 23.6381 21.8881 23.75 21.75 23.75L10.75 23.75C10.6119 23.75 10.5 23.6381 10.5 23.5L10.5 13.5911C10.5 13.5324 10.5207 13.4755 10.5585 13.4305L13.5704 9.83935C13.6179 9.78271 13.688 9.75 13.7619 9.75L21.75 9.75C21.8881 9.75 22 9.86193 22 10L22 23.5Z" stroke="#002230" stroke-width="1.5"/>
<path d="M14.75 14C14.75 14.2761 14.5261 14.5 14.25 14.5L11.25 14.5C10.9739 14.5 10.75 14.2761 10.75 14L10.75 12.8419C10.75 12.7284 10.7887 12.6182 10.8596 12.5295L13.1337 9.6876C13.2286 9.56903 13.3723 9.5 13.5241 9.5L14.25 9.5C14.5261 9.5 14.75 9.72386 14.75 10L14.75 14Z" fill="#002230"/>
<rect x="18.25" y="12" width="7" height="9" rx="3.5" fill="#F1F5F8"/>
<rect x="24.25" y="15.6871" width="1.5" height="7" rx="0.75" transform="rotate(90 24.25 15.6871)" fill="#002230"/>
<rect x="24.0377" y="15.4749" width="1.5" height="5" rx="0.75" transform="rotate(45 24.0377 15.4749)" fill="#002230"/>
<rect x="21.5628" y="13" width="5" height="1.5" rx="0.75" transform="rotate(45 21.5628 13)" fill="#002230"/>
</svg>
