<svg width="16" height="10" viewBox="0 0 16 10" fill="none" xmlns="http://www.w3.org/2000/svg">
<rect x="0.766754" y="0.185547" width="0.920107" height="9.81447" rx="0.460053" fill="#002230"/>
<rect y="9.07971" width="2.45362" height="0.920107" rx="0.460053" fill="#002230"/>
<rect x="0.766754" y="6.01282" width="0.920107" height="7.97426" rx="0.460053" transform="rotate(-90 0.766754 6.01282)" fill="#002230"/>
<rect x="0.766754" y="1.10571" width="0.920107" height="7.97426" rx="0.460053" transform="rotate(-90 0.766754 1.10571)" fill="#002230"/>
<rect width="0.920107" height="4.29553" rx="0.460053" transform="matrix(0.707107 0.707107 0.707107 -0.707107 5.27563 3.03748)" fill="#002230"/>
<rect x="5.27504" y="3.09912" width="0.920107" height="4.29553" rx="0.460053" transform="rotate(-45 5.27504 3.09912)" fill="#002230"/>
<path d="M13.1637 6.85826C13.0697 6.93962 12.9303 6.93962 12.8363 6.85826L10.9088 5.18898C10.7338 5.03745 10.841 4.75 11.0725 4.75L14.9275 4.75C15.159 4.75 15.2662 5.03745 15.0912 5.18898L13.1637 6.85826Z" fill="#002230"/>
</svg>
