<svg width="34" height="34" viewBox="0 0 34 34" fill="none" xmlns="http://www.w3.org/2000/svg">
<path d="M10.9931 16.0298C10.6936 15.7304 10.6936 15.5262 11.0135 15.2472C11.9867 14.376 13.1437 14.131 14.4095 14.2808C15.0016 14.3488 15.5665 14.5326 16.1041 14.7912C16.2198 14.8456 16.2879 14.832 16.3763 14.7435C17.3427 13.7703 18.3091 12.8039 19.2823 11.8375C19.3844 11.7355 19.3844 11.6402 19.3572 11.5109C19.1802 10.7895 19.2075 10.0817 19.5205 9.39433C19.7383 8.92474 20.0173 8.8771 20.378 9.2378C21.8753 10.7418 23.3725 12.2459 24.8834 13.7363C25.1828 14.0358 25.1556 14.3965 24.7472 14.5802C24.0395 14.8933 23.3249 14.9341 22.5831 14.7572C22.4469 14.7231 22.3653 14.7435 22.2632 14.8456C21.3172 15.7984 20.3644 16.7512 19.4048 17.704C19.2891 17.8197 19.2687 17.9082 19.3368 18.0579C19.7111 18.8473 19.9084 19.6776 19.8744 20.5487C19.8336 21.5355 19.5205 22.4271 18.8332 23.1553C18.5814 23.4207 18.3704 23.4207 18.1118 23.1621C17.2066 22.2501 11.8846 16.9213 10.9931 16.0298Z" fill="#002230"/>
<path d="M15.0059 19.9309C13.8965 21.0334 12.1432 22.7675 12.1773 22.7471C11.4899 23.3936 10.7413 23.9789 10.0131 24.5778C9.85654 24.7071 9.66599 24.8092 9.47543 24.8977C9.34612 24.9589 9.18959 25.061 9.06709 24.9385C8.93098 24.8092 9.03306 24.6391 9.10112 24.5166C9.25084 24.2512 9.40737 23.9857 9.59112 23.7475C10.3874 22.6927 11.2925 21.7331 12.2249 20.8007C12.2725 20.7939 13.25 19.7335 14.019 18.9645L15.0059 19.9309Z" fill="#002230"/>
</svg>
