<svg width="34" height="34" viewBox="0 0 34 34" fill="none" xmlns="http://www.w3.org/2000/svg">
<path d="M21 10.6265V9.37701C21 9.17173 20.8352 9.00461 20.6299 9.00204C19.6132 8.98923 18.2022 9.00032 17 10.1862C15.8208 9.02298 14.4681 8.99642 13.3723 9.00354C13.1662 9.00489 13 9.17245 13 9.37854V10.6175C13 10.8264 13.1706 10.9949 13.3795 10.9924C14.191 10.9827 16 11.1013 16 12.5057V16H14.875C14.6679 16 14.5 16.1679 14.5 16.375V17.625C14.5 17.8321 14.6679 18 14.875 18H16V21.5C16 22.9041 14.2477 23.001 13.3766 22.9987C13.1689 22.9982 13 23.1658 13 23.3735V24.623C13 24.8283 13.1648 24.9954 13.3701 24.998C14.3868 25.0107 15.7978 24.9997 17 23.8138C18.1792 24.977 19.5319 25.0036 20.6277 24.9964C20.8338 24.9951 21 24.8275 21 24.6214V23.3825C21 23.1736 20.8294 23.0051 20.6205 23.0076C19.809 23.0173 18 22.9044 18 21.5V18H19.125C19.3321 18 19.5 17.8321 19.5 17.625V16.375C19.5 16.1679 19.3321 16 19.125 16H18V12.5057C18 11.1015 19.7523 10.999 20.6234 11.0012C20.8311 11.0018 21 10.8342 21 10.6265Z" fill="#002230"/>
</svg>
