<svg width="16" height="16" viewBox="0 0 16 16" fill="none" xmlns="http://www.w3.org/2000/svg">
<path d="M3.75 4C3.75 3.86193 3.86193 3.75 4 3.75H15C15.1381 3.75 15.25 3.86193 15.25 4V12.0403C15.25 12.1066 15.2237 12.1702 15.1768 12.2171L12.2171 15.1768C12.1702 15.2237 12.1066 15.25 12.0403 15.25H4C3.86193 15.25 3.75 15.1381 3.75 15V4Z" stroke="#002230" stroke-width="1.5"/>
<path d="M12 12.5C12 12.2239 12.2239 12 12.5 12H14.5C14.7761 12 15 12.2239 15 12.5V12.893C15 13.0256 14.9473 13.1528 14.8535 13.2466L13.246 14.8536C13.1523 14.9473 13.0251 15 12.8925 15H12.5C12.2239 15 12 14.7761 12 14.5V12.5Z" fill="#002230"/>
<path d="M0 0.75C0 0.335786 0.335786 0 0.75 0C1.16421 0 1.5 0.335786 1.5 0.75V13H1C0.447715 13 0 12.5523 0 12V0.75Z" fill="#002230"/>
<path d="M0 0.75C0 0.335786 0.335786 0 0.75 0H10C10.5523 0 11 0.447715 11 1V1.5H0.75C0.335786 1.5 0 1.16421 0 0.75Z" fill="#002230"/>
</svg>
