<svg width="34" height="34" viewBox="0 0 34 34" fill="none" xmlns="http://www.w3.org/2000/svg">
<path d="M11.2337 13.297C11.2337 13.22 11.2337 13.157 11.2337 13.094C11.2337 12.1492 11.2337 11.2045 11.2337 10.2667C11.2337 9.48288 11.7132 9 12.4737 9C15.5431 9 18.6193 9 21.6887 9C22.3807 9 22.8877 9.51787 22.8945 10.2177C22.8945 11.1695 22.8945 12.1282 22.8945 13.08C22.8945 13.143 22.8945 13.206 22.8945 13.283C22.9562 13.29 23.0041 13.29 23.0521 13.297C23.4769 13.297 23.8948 13.297 24.3196 13.297C25.0253 13.297 25.5323 13.8078 25.5323 14.5287C25.5323 16.7471 25.5323 18.9656 25.5323 21.1841C25.5323 21.268 25.5254 21.359 25.5049 21.443C25.4021 21.9679 25.0116 22.3668 24.4909 22.4018C23.9702 22.4367 23.4426 22.4088 22.9082 22.4088C22.9082 21.541 22.9082 20.6802 22.9082 19.8054C19.0167 19.8054 15.1389 19.8054 11.2405 19.8054C11.2405 20.6662 11.2405 21.527 11.2405 22.4088C11.035 22.4088 10.85 22.4088 10.665 22.4088C10.343 22.4088 10.0278 22.4088 9.70582 22.4088C9.00014 22.4088 8.5 21.8979 8.5 21.1701C8.5 18.9726 8.5 16.7681 8.5 14.5707C8.5 14.4657 8.50685 14.3607 8.52741 14.2557C8.63017 13.6959 9.08921 13.304 9.65101 13.297C10.11 13.29 10.5759 13.297 11.035 13.297C11.0966 13.297 11.1583 13.297 11.2337 13.297ZM12.371 14.2627C15.502 14.2627 18.6125 14.2627 21.7298 14.2627C21.7298 12.8981 21.7298 11.5404 21.7298 10.1757C18.6056 10.1757 15.4951 10.1757 12.371 10.1757C12.371 11.5404 12.371 12.8981 12.371 14.2627Z" fill="#002230"/>
<path d="M12.1129 20.871C15.3906 20.871 18.6483 20.871 21.9127 20.871C21.9127 20.9301 21.9194 20.9827 21.9194 21.0353C21.9194 22.0216 21.9194 23.0012 21.9194 23.9875C21.9194 24.5661 21.4845 25 20.9026 25C18.3138 25 15.7184 25 13.1297 25C12.5477 25 12.1129 24.5726 12.1129 24.0072C12.1129 23.0275 12.1129 22.0479 12.1129 21.0682C12.1129 21.009 12.1129 20.9499 12.1129 20.871Z" fill="#002230"/>
</svg>
